<?xml version="1.0" encoding="utf-8"?>
<!-- Generator: Adobe Illustrator 22.1.0, SVG Export Plug-In . SVG Version: 6.00 Build 0)  -->
<svg version="1.1" id="Layer_1" xmlns="http://www.w3.org/2000/svg" xmlns:xlink="http://www.w3.org/1999/xlink" x="0px" y="0px"
	 viewBox="0 0 1000 1000" style="enable-background:new 0 0 1000 1000;" xml:space="preserve">
<style type="text/css">
	.st0{display:none;fill:#1E1E1E;}
	.st1{fill:#E22351;}
	.st2{fill:#FFCE00;}
	.st3{fill:#1E1E1E;stroke:#1E1E1E;stroke-width:3;stroke-miterlimit:10;}
	.st4{font-family:'VarelaRound-Regular';}
	.st5{font-size:102px;}
	.st6{letter-spacing:-1;}
	.st7{fill:#E22351;stroke:#E22351;stroke-width:3;stroke-miterlimit:10;}
	.st8{letter-spacing:1;}
</style>
<polygon class="st0" points="667.1,669.9 319.2,669.9 318.1,393.6 267.7,332.5 307.3,267.7 498,220.9 677.9,274.9 721.1,332.5 
	677.9,382.8 "/>
<path class="st1" d="M495,204.3c-140,0-245.6,51.6-245.6,122.8c0,19.6,9.8,49.1,49.1,76.1v218.6c0,41.8,31.9,73.7,73.7,73.7h245.6
	c41.8,0,73.7-31.9,73.7-73.7V403.3c39.3-27,49.1-56.5,49.1-76.1C740.6,255.9,635,204.3,495,204.3z M655.9,368.6
	c-5.1,3.4-11,9.6-11,19.9v233.3c0,16.2-10.9,27.1-27.1,27.1H372.2c-16.2,0-27.1-10.9-27.1-27.1V388.6c0-10.3-6-16.5-11-19.9
	c-24.2-12.1-38.1-27.2-38.1-41.5c0-16.6,20.4-35.4,54.6-50.2c38.8-16.8,90-26,144.4-26s105.6,9.2,144.4,26
	c34.2,14.8,54.6,33.6,54.6,50.2C694,341.4,680.1,356.5,655.9,368.6z"/>
<path class="st2" d="M519.6,450c-41.8,0-73.7,31.9-73.7,73.7s31.9,73.7,73.7,73.7c41.8,0,73.7-31.9,73.7-73.7
	C593.2,481.9,561.3,450,519.6,450z M519.6,550.7c-16.2,0-27.1-10.9-27.1-27.1s10.9-27.1,27.1-27.1c16.2,0,27.1,10.9,27.1,27.1
	S535.7,550.7,519.6,550.7z"/>
<path class="st2" d="M445.9,305.1h-24.6c-10.6,0-22.1,8.4-22.1,22.1c0,13.4,8.7,22.1,22.1,22.1h24.6c13.6,0,22.1-11.5,22.1-22.1
	C467.9,313.7,459.3,305.1,445.9,305.1z"/>
<text transform="matrix(1 0 0 1 170.4409 817.2817)" class="st3 st4 st5">brea</text>
<text transform="matrix(1 0 0 1 170.4409 817.2817)" class="st3 st4 st5">brea</text>
<text transform="matrix(1 0 0 1 388.9409 817.2817)" class="st3 st4 st5">d</text>
<text transform="matrix(1 0 0 1 388.9409 817.2817)" class="st3 st4 st5">d</text>
<text transform="matrix(1 0 0 1 454.4409 817.2817)" class="st3 st4 st5 st6">&amp;b</text>
<text transform="matrix(1 0 0 1 454.4409 817.2817)"><tspan x="0" y="0" class="st7 st4 st5 st6">&amp;</tspan><tspan x="72.7" y="0" class="st3 st4 st5">b</tspan></text>
<text transform="matrix(1 0 0 1 589.3409 817.2817)" class="st3 st4 st5">u</text>
<text transform="matrix(1 0 0 1 589.3409 817.2817)" class="st3 st4 st5">u</text>
<text transform="matrix(1 0 0 1 651.4409 817.2817)" class="st3 st4 st5 st8">t</text>
<text transform="matrix(1 0 0 1 651.4409 817.2817)" class="st3 st4 st5 st8">t</text>
<text transform="matrix(1 0 0 1 692.4409 817.2817)" class="st3 st4 st5">t</text>
<text transform="matrix(1 0 0 1 692.4409 817.2817)" class="st3 st4 st5">t</text>
<text transform="matrix(1 0 0 1 730.7409 817.2817)" class="st3 st4 st5 st8">e</text>
<text transform="matrix(1 0 0 1 730.7409 817.2817)" class="st3 st4 st5 st8">e</text>
<text transform="matrix(1 0 0 1 790.5409 817.2817)" class="st3 st4 st5">r</text>
<text transform="matrix(1 0 0 1 790.5409 817.2817)" class="st3 st4 st5">r</text>
</svg>
