<?xml version="1.0" encoding="utf-8"?>
<!-- Generator: Adobe Illustrator 22.1.0, SVG Export Plug-In . SVG Version: 6.00 Build 0)  -->
<svg version="1.1" id="Layer_1" xmlns="http://www.w3.org/2000/svg" xmlns:xlink="http://www.w3.org/1999/xlink" x="0px" y="0px"
	 viewBox="0 0 655 620.6" style="enable-background:new 0 0 655 620.6;" xml:space="preserve">
<style type="text/css">
	.st0{fill:#1E1E1E;}
	.st1{display:none;fill:#1E1E1E;}
	.st2{fill:#E22351;}
	.st3{fill:#FFCE00;}
</style>
<path class="st0" d="M53.1,574.5c-2.5-4.3-5.7-7.7-9.7-9.9c-4-2.3-8.3-3.4-12.7-3.4c-5.9,0-11.3,2-15.9,5.8v-21.5
	c0-1.8-0.6-3.3-1.8-4.4c-1.2-1.2-2.7-1.8-4.4-1.8c-1.7,0-3.2,0.6-4.3,1.8c-1.2,1.2-1.7,2.7-1.7,4.4v66.2c0,1.7,0.6,3.2,1.8,4.3
	c1.2,1.2,2.6,1.8,4.3,1.8c1.7,0,3.2-0.6,4.4-1.7c1-1,1.6-2.2,1.8-3.6c4.7,3.9,10,5.8,16,5.8c4.5,0,8.7-1.1,12.7-3.4
	c4-2.3,7.3-5.6,9.7-9.9c2.5-4.3,3.7-9.4,3.7-15.2C56.8,583.9,55.6,578.8,53.1,574.5z M40.4,602.2L40.4,602.2
	c-2.8,2.9-6.4,4.3-11.1,4.3c-2.9,0-5.6-0.6-8.1-1.9c-2.4-1.2-4.6-2.8-6.5-4.8v-20.2c1.9-2,4.1-3.6,6.5-4.8c2.5-1.3,5.3-1.9,8.1-1.9
	c4.6,0,8.3,1.4,11.1,4.3c2.8,2.9,4.2,7.1,4.2,12.5C44.6,595.1,43.2,599.3,40.4,602.2z"/>
<polygon class="st1" points="490.5,468.3 142.6,468.3 141.5,192 91.1,130.9 130.7,66.1 321.4,19.3 501.3,73.3 544.5,130.9 
	501.3,181.2 "/>
<path class="st2" d="M318.4,2.7c-140,0-245.6,51.6-245.6,122.8c0,19.6,9.8,49.1,49.1,76.1v218.6c0,41.8,31.9,73.7,73.7,73.7h245.6
	c41.8,0,73.7-31.9,73.7-73.7V201.7c39.3-27,49.1-56.5,49.1-76.1C564,54.3,458.4,2.7,318.4,2.7z M479.3,167c-5.1,3.4-11,9.6-11,19.9
	v233.3c0,16.2-10.9,27.1-27.1,27.1H195.6c-16.2,0-27.1-10.9-27.1-27.1V187c0-10.3-6-16.5-11-19.9c-24.2-12.1-38.1-27.2-38.1-41.5
	c0-16.6,20.4-35.4,54.6-50.2c38.8-16.8,90-26,144.4-26s105.6,9.2,144.4,26c34.2,14.8,54.6,33.6,54.6,50.2
	C517.4,139.8,503.5,154.9,479.3,167z"/>
<path class="st3" d="M343,248.4c-41.8,0-73.7,31.9-73.7,73.7s31.9,73.7,73.7,73.7s73.7-31.9,73.7-73.7
	C416.6,280.3,384.7,248.4,343,248.4z M343,349.1c-16.2,0-27.1-10.9-27.1-27.1s10.9-27.1,27.1-27.1s27.1,10.9,27.1,27.1
	S359.1,349.1,343,349.1z"/>
<path class="st3" d="M269.3,103.5h-24.6c-10.6,0-22.1,8.4-22.1,22.1c0,13.4,8.7,22.1,22.1,22.1h24.6c13.6,0,22.1-11.5,22.1-22.1
	C291.3,112.1,282.7,103.5,269.3,103.5z"/>
<path class="st0" d="M96.4,562.9c-1.1-1.2-2.6-1.8-4.3-1.8h-0.5c-5.3,0-10.1,2.3-14.5,7v-0.3c0-1.7-0.6-3.2-1.8-4.4
	s-2.7-1.8-4.4-1.8c-1.7,0-3.2,0.6-4.3,1.8c-1.2,1.2-1.7,2.7-1.7,4.4v43.8c0,1.7,0.6,3.2,1.8,4.3c1.2,1.2,2.6,1.8,4.3,1.8
	c1.7,0,3.2-0.6,4.4-1.7c1.2-1.2,1.8-2.6,1.8-4.3v-30.5c1.7-2.4,3.7-4.3,6.1-5.7c2.5-1.5,5.2-2.2,8.2-2.2h0.5c1.7,0,3.2-0.5,4.4-1.6
	c1.2-1.1,1.8-2.5,1.8-4.3C98.1,565.6,97.5,564.1,96.4,562.9z"/>
<path class="st0" d="M268.4,541.1c-1.2-1.2-2.6-1.8-4.3-1.8c-1.7,0-3.2,0.6-4.4,1.7c-1.2,1.2-1.8,2.7-1.8,4.4V567
	c-4.7-3.9-10-5.8-15.9-5.8c-4.5,0-8.7,1.1-12.7,3.4c-4,2.3-7.3,5.6-9.7,9.9c-2.5,4.3-3.7,9.4-3.7,15.2c0,5.7,1.3,10.9,3.7,15.2
	c2.5,4.3,5.7,7.7,9.7,9.9c4,2.3,8.3,3.4,12.7,3.4c5.9,0,11.3-2,16-5.8c0.2,1.4,0.8,2.6,1.8,3.6c1.2,1.2,2.7,1.7,4.4,1.7
	c1.7,0,3.2-0.6,4.3-1.8c1.2-1.2,1.8-2.6,1.8-4.3v-66.2C270.2,543.7,269.6,542.3,268.4,541.1z M257.9,599.8c-1.9,2-4.1,3.6-6.5,4.8
	l0,0c-2.5,1.3-5.3,1.9-8.1,1.9c-4.6,0-8.3-1.4-11.1-4.3c-2.8-2.9-4.2-7.1-4.2-12.5c0-5.4,1.4-9.6,4.2-12.5c2.8-2.9,6.4-4.3,11.1-4.3
	c2.9,0,5.6,0.6,8.1,1.9c2.4,1.2,4.6,2.8,6.5,4.8V599.8z"/>
<path class="st0" d="M409.8,574.5c-2.5-4.3-5.7-7.7-9.7-9.9c-4-2.3-8.3-3.4-12.7-3.4c-5.9,0-11.3,2-15.9,5.8v-21.5
	c0-1.8-0.6-3.3-1.8-4.4c-1.2-1.2-2.7-1.8-4.4-1.8c-1.7,0-3.2,0.6-4.3,1.8c-1.2,1.2-1.7,2.7-1.7,4.4v66.2c0,1.7,0.6,3.2,1.8,4.3
	c1.2,1.2,2.6,1.8,4.3,1.8c1.7,0,3.2-0.6,4.4-1.7c1-1,1.6-2.2,1.8-3.6c4.7,3.9,10,5.8,16,5.8c4.5,0,8.7-1.1,12.7-3.4
	c4-2.3,7.3-5.6,9.7-9.9c2.5-4.3,3.7-9.4,3.7-15.2C413.5,583.9,412.3,578.8,409.8,574.5z M397.1,602.2L397.1,602.2
	c-2.8,2.9-6.4,4.3-11.1,4.3c-2.9,0-5.6-0.6-8.1-1.9c-2.4-1.2-4.6-2.8-6.5-4.8v-20.2c1.9-2,4.1-3.6,6.5-4.8c2.5-1.3,5.3-1.9,8.1-1.9
	c4.6,0,8.3,1.4,11.1,4.3c2.8,2.9,4.2,7.1,4.2,12.5C401.2,595.1,399.8,599.3,397.1,602.2z"/>
<path class="st2" d="M346.1,609.7c-0.4-0.6-0.9-1.2-1.5-1.8l-5.9-5.6c1.6-2.4,3.1-4.9,4.3-7.5c0.4-0.9,0.7-1.8,0.7-2.7
	c0-1.6-0.6-3-1.7-4.1c-1.1-1.1-2.5-1.6-4.1-1.6c-1.2,0-2.3,0.3-3.2,1c-0.9,0.6-1.7,1.5-2.1,2.5c-0.8,1.8-1.6,3.3-2.3,4.5l-20-18.9
	c-2.9-2.7-5-4.7-6.2-6.1c-1.2-1.3-2.1-2.6-2.6-4c-0.6-1.3-0.8-2.8-0.8-4.6c0-2.1,0.8-3.9,2.4-5.5c1.7-1.6,3.9-2.4,7-2.4
	c2.9,0,5.8,0.8,8.9,2.5c0.9,0.4,1.7,0.7,2.5,0.7c1.4,0,2.7-0.5,3.6-1.5c1-1,1.4-2.2,1.4-3.5c0-0.9-0.3-1.8-0.8-2.6
	c-0.5-0.8-1.1-1.3-1.7-1.7c-4.7-3.1-9.5-4.7-14.4-4.7c-4.1,0-7.8,0.9-10.9,2.6c-3.1,1.7-5.5,4.1-7.2,7.1c-1.7,2.9-2.5,6.2-2.5,9.7
	c0,3.1,0.6,6,1.7,8.4c0.9,2,2.2,4,3.8,6.1c-2.5,1.8-4.8,4.2-6.9,7.1c-2.6,3.5-3.9,7.8-3.9,12.8c0,3.8,0.9,7.5,2.8,10.9
	c1.9,3.4,4.8,6.3,8.8,8.4h0c3.9,2.1,9,3.2,14.9,3.2c4.1,0,8.1-0.8,11.8-2.3c3.2-1.3,6.3-3.1,9-5.2l5.9,5.6c1.2,1.1,2.6,1.6,4.2,1.6
	c1.7,0,3.1-0.6,4.2-1.7c1-1.1,1.5-2.4,1.5-4C346.7,611.3,346.5,610.5,346.1,609.7z M322.7,603c-4,2.9-8.5,4.3-13.4,4.3
	c-4,0-7.3-1.1-10-3.3c-2.6-2.1-3.9-4.8-3.9-8.1c0-2.9,0.7-5.4,2.2-7.5c1.3-1.9,2.8-3.5,4.5-4.7L322.7,603z"/>
<path class="st0" d="M467.6,563.4c-1.2-1.2-2.6-1.8-4.3-1.8c-1.7,0-3.2,0.6-4.4,1.7c-1.2,1.2-1.8,2.6-1.8,4.3v30.1
	c-2.2,2.7-4.5,4.8-6.9,6.4c-2.5,1.6-5.2,2.4-8.3,2.4c-6.6,0-9.7-3.5-9.7-10.9v-27.9c0-1.7-0.6-3.1-1.8-4.3c-1.2-1.2-2.6-1.8-4.3-1.8
	c-1.7,0-3.2,0.6-4.4,1.7c-1.2,1.2-1.8,2.6-1.8,4.3v29c0,3.9,0.8,7.5,2.3,10.7c1.6,3.3,3.9,5.9,6.9,7.9c3,1.9,6.5,2.9,10.6,2.9
	c4.3,0,8.1-0.9,11.3-2.7c2.1-1.2,4.2-2.7,6.1-4.5v0.5c0,1.7,0.6,3.2,1.8,4.4s2.7,1.8,4.4,1.8c1.7,0,3.2-0.6,4.3-1.8
	c1.2-1.2,1.7-2.7,1.7-4.4v-43.8C469.3,566.1,468.8,564.6,467.6,563.4z"/>
<path class="st0" d="M511.6,607.6c-1-1-2.2-1.5-3.6-1.5c-0.6,0-1.1,0-1.5,0.1c-0.3,0.1-0.6,0.1-1,0.2c-1.2,0.4-2.4,0.5-3.6,0.5
	c-1.6,0-3-0.3-4-0.9c-0.7-0.4-1.1-1.7-1.1-3.7v-29.3h10c1.6,0,2.9-0.6,3.9-1.6c1-1.1,1.5-2.4,1.5-3.8c0-1.6-0.5-2.9-1.6-3.9
	c-1-1-2.4-1.6-3.9-1.6h-10v-6.7c0-0.9-0.3-1.8-1-2.4c-0.7-0.7-1.5-1.1-2.5-1.1c-1,0-1.9,0.5-2.8,1.3l-13.8,13.5
	c-1.2,1-1.4,2.1-1.4,2.9c0,0.9,0.3,1.8,1,2.4c0.7,0.7,1.5,1,2.4,1h5.7v30.1c0,6.8,2.8,15,16.4,15c3.2,0,6.3-0.7,9.2-2
	c2.6-1.4,3.2-3.4,3.2-4.9C513.2,609.9,512.7,608.6,511.6,607.6z"/>
<path class="st0" d="M552.6,607.6c-1-1-2.2-1.5-3.6-1.5c-0.6,0-1.1,0-1.5,0.1c-0.3,0.1-0.6,0.1-1,0.2c-1.2,0.4-2.4,0.5-3.6,0.5
	c-1.6,0-3-0.3-4-0.9c-0.7-0.4-1.1-1.7-1.1-3.7v-29.3h10c1.6,0,2.9-0.6,3.9-1.6c1-1.1,1.5-2.4,1.5-3.8c0-1.6-0.5-2.9-1.6-3.9
	c-1-1-2.4-1.6-3.9-1.6h-10v-6.7c0-0.9-0.3-1.8-1-2.4c-0.7-0.7-1.5-1.1-2.5-1.1c-1,0-1.9,0.5-2.8,1.3l-13.8,13.5
	c-1.2,1-1.4,2.1-1.4,2.9c0,0.9,0.3,1.8,1,2.4c0.7,0.7,1.5,1,2.4,1h5.7v30.1c0,6.8,2.8,15,16.4,15c3.2,0,6.3-0.7,9.2-2
	c2.6-1.4,3.2-3.4,3.2-4.9C554.2,609.9,553.7,608.6,552.6,607.6z"/>
<path class="st0" d="M652.1,562.9c-1.1-1.2-2.6-1.8-4.3-1.8h-0.5c-5.3,0-10.1,2.3-14.5,7v-0.3c0-1.7-0.6-3.2-1.8-4.4
	s-2.7-1.8-4.4-1.8c-1.7,0-3.2,0.6-4.3,1.8c-1.2,1.2-1.7,2.7-1.7,4.4v43.8c0,1.7,0.6,3.2,1.8,4.3c1.2,1.2,2.6,1.8,4.3,1.8
	c1.7,0,3.2-0.6,4.4-1.7c1.2-1.2,1.8-2.6,1.8-4.3v-30.5c1.7-2.4,3.7-4.3,6.1-5.7c2.5-1.5,5.2-2.2,8.2-2.2h0.5c1.7,0,3.2-0.5,4.4-1.6
	c1.2-1.1,1.8-2.5,1.8-4.3C653.8,565.6,653.3,564.1,652.1,562.9z"/>
<path class="st0" d="M149.1,592.7c1.1-1.2,1.7-2.6,1.7-4.3c0-4.8-1-9.4-3-13.5c-2-4.1-5-7.5-8.9-10c-3.9-2.5-8.6-3.8-13.9-3.8
	c-5.7,0-10.5,1.4-14.4,4c-3.9,2.7-6.8,6.2-8.7,10.5c-1.8,4.2-2.8,8.9-2.8,14c0,8.9,2.5,16,7.4,21c4.9,5,11.8,7.5,20.5,7.5
	c4.2,0,7.7-0.4,10.4-1.2c2.7-0.8,5.4-2,8.2-3.5c2.8-1.6,3.4-3.7,3.4-5.1c0-1.6-0.6-2.9-1.7-4c-1.1-1-2.4-1.5-3.9-1.5
	c-0.9,0-1.8,0.2-2.5,0.6c-1.9,1-3.9,1.7-6,2.2c-2,0.5-4.4,0.8-7.1,0.8c-5,0-8.9-1.2-11.6-3.6c-2.4-2.1-3.9-4.9-4.6-8.5h32.8
	C146.5,594.5,148,593.9,149.1,592.7z M111.7,583.9c0.3-2.4,1-4.4,2.1-6c1.3-2,3-3.5,5-4.4c4.1-1.9,8.3-1.9,12.4,0
	c2,0.9,3.7,2.4,5.1,4.4c1.1,1.6,1.9,3.7,2.2,6H111.7z"/>
<path class="st0" d="M203.3,572.2c-1.7-3.3-4.3-6-7.7-8c-3.5-2-7.7-3.1-12.6-3.1c-6.2,0-12.3,1.3-18.2,3.8c-2.3,1-3.6,2.8-3.6,5.3
	c0,1.5,0.5,2.8,1.6,3.8c1,1,2.3,1.6,3.7,1.6c0.5,0,1-0.1,1.7-0.2l0.1,0c2.4-0.8,4.6-1.4,6.5-1.8c1.9-0.4,4.1-0.6,6.6-0.6
	c4.3,0,7.4,0.9,9.4,2.6c1.8,1.6,2.7,4.2,2.8,7.9h-10.8c-8,0-14.2,1.6-18.4,4.8c-4.4,3.3-6.6,7.7-6.6,13.2c0,3.3,0.8,6.3,2.5,8.9
	c1.6,2.6,3.9,4.6,6.7,5.9c2.7,1.3,5.8,2,9,2c6.9,0,12.8-2,17.7-5.9c0.1,1.4,0.7,2.6,1.7,3.6c1.2,1.2,2.6,1.8,4.3,1.8
	c1.7,0,3.2-0.6,4.4-1.7c1.2-1.2,1.8-2.6,1.8-4.3v-28.9C205.8,579,205,575.5,203.3,572.2z M193.5,600.3c-1.7,1.8-3.8,3.4-6.2,4.7
	c-2.6,1.3-5.2,2-8,2c-3.5,0-5.9-0.6-7.3-1.9c-1.3-1.2-2-2.8-2-4.8c0-4.4,4.7-6.6,13.9-6.6h9.6V600.3z"/>
<path class="st0" d="M608.1,592.8c1.1-1.2,1.7-2.6,1.7-4.3c0-4.8-1-9.4-3-13.5c-2-4.1-5-7.5-8.9-10c-3.9-2.5-8.6-3.8-13.9-3.8
	c-5.7,0-10.5,1.4-14.4,4c-3.9,2.7-6.8,6.2-8.7,10.5c-1.8,4.2-2.8,8.9-2.8,14c0,8.9,2.5,16,7.4,21c4.9,5,11.8,7.5,20.5,7.5
	c4.2,0,7.7-0.4,10.4-1.2c2.7-0.8,5.4-2,8.2-3.5c2.8-1.6,3.4-3.7,3.4-5.1c0-1.6-0.6-2.9-1.7-4c-1.1-1-2.4-1.5-3.9-1.5
	c-0.9,0-1.8,0.2-2.5,0.6c-1.9,1-3.9,1.7-6,2.2c-2,0.5-4.4,0.8-7.1,0.8c-5,0-8.9-1.2-11.6-3.6c-2.4-2.1-3.9-4.9-4.6-8.5h32.8
	C605.4,594.6,606.9,594,608.1,592.8z M570.1,583.9c0.3-2.4,1-4.4,2.1-6c1.3-2,3-3.5,5-4.4c4.1-1.9,8.3-1.9,12.4,0
	c2,0.9,3.7,2.4,5.1,4.4c1.1,1.6,1.9,3.7,2.2,6H570.1z"/>
</svg>
